<svg xmlns="http://www.w3.org/2000/svg" width="118" height="42" alt="logo" viewBox="0 0 32 32">
    <g fill="none" fill-rule="evenodd">
        <path fill="#FEE6CD" d="M17 15h4v12h-4z"/>
        <path d="M17 4a6 6 0 0 1 4.224 10.261 2.999 2.999 0 0 1 1.759 2.418l4.468-1.276A2 2 0 0 1 30 17.326v7.348a2 2 0 0 1-2.55 1.923l-4.467-1.276A3 3 0 0 1 20 28H5a3 3 0 0 1-3-3v-1a1 1 0 0 1 2 0v1a1 1 0 0 0 1 1h15a1 1 0 0 0 1-1v-8a1 1 0 0 0-1-1H5a1 1 0 0 0-.993.883L4 17a1 1 0 0 1-2 0c0-1.067.557-2.004 1.397-2.536a5 5 0 1 1 7.838-6.124A5.999 5.999 0 0 1 17 4zm1.5 18a1.5 1.5 0 1 1 0 3 1.5 1.5 0 0 1 0-3zm9.5-4.674-5 1.428v4.492l5 1.428v-7.348zM3 19a1 1 0 0 1 1 1v1a1 1 0 0 1-2 0v-1a1 1 0 0 1 1-1zm10-1a1 1 0 0 1 0 2H7a1 1 0 0 1 0-2h6zm-1.324-5.23-.03.081c-.165.414-.383.8-.647 1.15h1.53a6.014 6.014 0 0 1-.853-1.231zM17 6a4 4 0 1 0 0 8 4 4 0 0 0 0-8zM7 8a3 3 0 1 0 0 6 3 3 0 0 0 0-6z" fill="#FA8C16" fill-rule="nonzero"/>
    </g>
</svg>